<?xml version="1.0" standalone="no"?>
<!DOCTYPE svg PUBLIC "-//W3C//DTD SVG 20010904//EN"
 "http://www.w3.org/TR/2001/REC-SVG-20010904/DTD/svg10.dtd">
<svg version="1.0" xmlns="http://www.w3.org/2000/svg"
 width="928.000000pt" height="928.000000pt" viewBox="0 0 928.000000 928.000000"
 preserveAspectRatio="xMidYMid meet">
<metadata>
Created by potrace 1.14, written by Peter Selinger 2001-2017
</metadata>
<g transform="translate(0.000000,928.000000) scale(0.100000,-0.100000)"
fill="#000000" stroke="none">
<path d="M1167 9125 c-1 -5 -2 -140 -2 -300 l1 -290 3427 0 c1885 0 3428 2
3428 5 1 3 2 137 3 298 1 191 -2 292 -9 293 -5 1 -1548 2 -3427 3 -2271 1
-3419 -2 -3421 -9z"/>
<path d="M1179 7932 c-22 -4 -21 -584 1 -593 8 -3 1165 -5 2570 -5 l2554 1 1
275 c0 151 -2 286 -5 300 l-5 25 -2551 0 c-1403 0 -2557 -1 -2565 -3z"/>
<path d="M1169 6715 c-7 -120 -2 -575 6 -576 27 -3 3151 -4 3160 -2 7 3 11
102 10 301 l0 297 -1587 0 c-1581 0 -1588 0 -1589 -20z"/>
<path d="M1169 5530 c-1 -3 -2 -137 -3 -297 0 -188 3 -294 9 -296 6 -2 1549
-3 3430 -2 l3420 0 0 298 c0 163 -2 298 -5 298 -17 4 -6850 3 -6851 -1z"/>
<path d="M1167 4325 c-2 -9 -1 -4110 2 -4160 1 -20 6 -21 324 -19 177 0 327 2
332 2 7 1 10 601 10 1787 0 1874 -2 1792 37 1786 4 0 19 -1 35 -1 15 0 60 0
98 0 39 -1 75 -1 80 -1 105 4 214 3 223 -3 7 -4 12 -4 12 1 0 9 52 9 66 0 6
-3 16 -2 23 2 7 5 28 5 46 1 18 -4 38 -4 45 0 10 6 62 6 80 -1 3 -1 10 0 15 1
26 6 183 3 193 -4 7 -4 12 -4 12 1 0 10 52 9 68 -1 6 -4 20 -3 29 1 10 5 45 7
78 5 33 -2 67 -3 75 -2 8 0 62 0 120 0 116 -1 110 -1 163 3 21 1 41 -1 43 -5
3 -5 10 -5 16 -2 6 4 54 6 107 5 107 -2 101 -2 154 2 21 1 40 0 43 -4 2 -4 17
-4 32 0 15 4 36 6 47 5 29 -3 186 -6 230 -5 105 4 214 3 223 -3 7 -4 12 -4 12
1 0 10 52 9 68 -1 6 -3 14 -2 17 4 9 14 9 599 0 608 -11 11 -3154 8 -3158 -3z"/>
</g>
</svg>
