<svg width="377" height="377" viewBox="0 0 377 377" fill="none" xmlns="http://www.w3.org/2000/svg">
<path d="M236.802 9.77633C243.8 7.1785 251.665 9.76512 255.755 16.0098L267.47 33.8959C270.31 38.2334 275.077 40.9253 280.258 41.1184L301.625 41.9147C309.084 42.1927 315.36 47.5921 316.749 54.9266L320.728 75.9343C321.692 81.0287 325.066 85.3398 329.779 87.5011L349.214 96.4133C355.999 99.5248 359.732 106.915 358.208 114.223L353.844 135.154C352.786 140.229 354.253 145.503 357.78 149.304L372.325 164.975C377.403 170.446 378.023 178.702 373.819 184.871L361.778 202.538C358.857 206.823 358.194 212.257 359.999 217.118L367.44 237.162C370.038 244.16 367.451 252.025 361.206 256.115L343.32 267.83C338.983 270.671 336.291 275.437 336.098 280.618L335.301 301.985C335.023 309.444 329.624 315.72 322.289 317.109L301.282 321.088C296.187 322.052 291.876 325.426 289.715 330.139L280.803 349.574C277.691 356.359 270.301 360.092 262.993 358.568L242.062 354.204C236.987 353.146 231.713 354.613 227.912 358.14L212.241 372.685C206.77 377.763 198.514 378.383 192.345 374.179L174.678 362.138C170.393 359.217 164.959 358.555 160.098 360.359L140.054 367.8C133.056 370.398 125.191 367.811 121.101 361.566L109.386 343.68C106.546 339.343 101.779 336.651 96.5976 336.458L75.2314 335.661C67.7717 335.383 61.4956 329.984 60.1066 322.65L56.1284 301.642C55.1637 296.547 51.7901 292.236 47.077 290.075L27.6419 281.163C20.8565 278.051 17.1244 270.661 18.648 263.353L23.0118 242.423C24.0701 237.347 22.6031 232.073 19.0759 228.272L4.53074 212.601C-0.547435 207.13 -1.16738 198.874 3.03675 192.706L15.0784 175.038C17.9985 170.753 18.6615 165.319 16.857 160.459L9.41622 140.414C6.81839 133.416 9.40502 125.551 15.6497 121.461L33.5358 109.746C37.8733 106.906 40.5652 102.139 40.7583 96.9577L41.5546 75.5915C41.8326 68.1318 47.232 61.8557 54.5665 60.4667L75.5742 56.4885C80.6686 55.5238 84.9797 52.1502 87.141 47.4371L96.0532 28.002C99.1647 21.2166 106.555 17.4845 113.863 19.0081L134.794 23.372C139.869 24.4302 145.143 22.9632 148.944 19.436L164.615 4.89085C170.086 -0.187325 178.342 -0.807277 184.51 3.39685L202.178 15.4385C206.463 18.3586 211.897 19.0216 216.757 17.2171L236.802 9.77633Z" fill="#06B48A"/>
</svg>
